<?xml version="1.0" standalone="no"?>
<!DOCTYPE svg PUBLIC "-//W3C//DTD SVG 20010904//EN"
 "http://www.w3.org/TR/2001/REC-SVG-20010904/DTD/svg10.dtd">
<svg version="1.0" xmlns="http://www.w3.org/2000/svg"
 width="1584.000000pt" height="1584.000000pt" viewBox="0 0 1584.000000 1584.000000"
 preserveAspectRatio="xMidYMid meet">
<metadata>
Created by potrace 1.14, written by Peter Selinger 2001-2017
</metadata>
<g transform="translate(0.000000,1584.000000) scale(0.100000,-0.100000)"
fill="#000000" stroke="none">
<path d="M14100 11513 c0 -5 -12 -22 -28 -38 -23 -26 -76 -88 -144 -170 -9
-11 -45 -54 -80 -95 -34 -42 -81 -98 -103 -124 -22 -27 -48 -58 -59 -70 -10
-11 -43 -51 -73 -88 -31 -38 -59 -68 -63 -68 -5 0 -11 -8 -15 -17 -3 -10 -22
-36 -43 -59 -20 -23 -49 -57 -64 -76 -15 -19 -37 -46 -50 -60 -13 -13 -39 -44
-58 -68 -19 -24 -45 -54 -57 -67 -12 -12 -27 -31 -35 -41 -7 -10 -33 -42 -58
-71 -25 -29 -52 -62 -62 -73 -9 -10 -31 -37 -48 -58 -17 -21 -41 -49 -52 -62
-11 -13 -37 -43 -57 -68 -20 -25 -38 -47 -42 -50 -5 -5 -196 -233 -229 -273
-8 -11 -26 -32 -40 -47 -14 -16 -36 -43 -50 -60 -14 -18 -32 -40 -41 -49 -8
-9 -33 -38 -55 -65 -21 -27 -48 -59 -59 -71 -11 -12 -29 -32 -40 -46 -37 -46
-120 -144 -138 -164 -46 -48 -52 -68 -52 -152 0 -47 4 -84 10 -86 6 -1 200 -2
433 -2 l422 1 1 -731 c0 -401 2 -755 4 -785 7 -120 17 -230 31 -325 14 -94 13
-91 29 -165 3 -14 7 -34 9 -45 2 -11 11 -47 20 -80 9 -33 19 -70 22 -82 24
-113 165 -421 225 -491 9 -11 18 -24 20 -29 15 -39 216 -253 277 -293 20 -14
45 -32 55 -41 9 -9 30 -22 45 -29 15 -8 37 -23 50 -34 12 -11 22 -16 22 -12 0
4 13 -2 29 -13 16 -12 32 -21 35 -21 3 0 29 -11 59 -24 59 -28 156 -65 184
-71 10 -2 43 -11 73 -19 30 -8 66 -17 80 -20 14 -3 36 -7 50 -11 14 -3 43 -7
65 -10 22 -2 51 -7 65 -10 76 -17 413 -23 575 -10 55 4 108 7 117 7 10 0 20 3
23 8 3 5 11 7 18 4 13 -5 302 49 302 56 0 1 7 3 16 5 34 6 196 57 232 73 l37
16 0 614 c0 337 -3 611 -7 609 -61 -34 -243 -110 -243 -101 0 4 -6 2 -12 -4
-14 -11 -108 -37 -168 -47 -19 -3 -47 -8 -62 -11 -107 -22 -374 -22 -496 0
-63 12 -147 47 -212 90 -53 35 -157 140 -165 167 -4 10 -11 19 -16 19 -6 0 -8
4 -4 9 3 5 1 12 -5 16 -19 12 -86 183 -93 235 0 3 -4 21 -9 40 -18 74 -21 176
-22 850 l-1 695 648 0 c568 0 647 2 648 15 1 8 2 263 3 565 l1 550 -650 5
-650 5 0 653 0 652 -112 0 c-62 0 -113 -3 -113 -7z"/>
<path d="M2277 10345 c-1 -1 -49 -5 -107 -9 -104 -7 -123 -8 -209 -20 -35 -5
-161 -32 -241 -51 -282 -69 -648 -257 -888 -459 -136 -114 -432 -445 -432
-484 0 -6 -4 -12 -9 -14 -23 -9 -211 -357 -211 -392 0 -9 -5 -16 -12 -16 -6 0
-9 -3 -5 -6 3 -3 -4 -27 -15 -52 -40 -94 -101 -329 -123 -477 -3 -16 -8 -48
-12 -70 -4 -22 -8 -925 -10 -2007 l-4 -1968 628 0 628 0 0 920 c0 506 3 920 7
920 5 0 8 -3 8 -8 0 -4 21 -22 47 -39 27 -18 67 -46 91 -63 23 -16 46 -30 49
-30 4 0 14 -7 23 -15 16 -14 252 -135 274 -140 6 -1 25 -8 41 -15 17 -7 38
-15 48 -17 10 -1 31 -10 48 -18 16 -9 34 -13 39 -10 6 3 10 2 10 -3 0 -5 6 -9
13 -10 16 -1 49 -8 117 -26 30 -8 58 -12 62 -10 5 3 8 2 8 -3 0 -4 17 -9 38
-10 33 -2 77 -9 77 -13 0 -3 133 -11 180 -11 49 0 113 6 185 16 122 18 108 15
210 38 114 26 195 49 204 58 6 5 18 9 27 9 9 0 41 11 70 24 30 13 57 24 62 24
4 1 29 11 55 23 26 12 49 23 52 24 32 11 106 50 108 56 2 5 9 9 16 9 6 0 35
15 63 34 28 19 54 31 57 28 3 -3 6 0 6 6 0 7 5 12 10 12 6 0 16 5 23 10 7 6
57 43 112 84 107 79 132 101 236 201 79 76 219 233 219 246 0 3 10 17 21 30
12 13 39 51 60 84 21 33 43 65 47 71 5 6 24 37 42 70 18 32 36 64 40 69 4 6
30 60 58 121 71 156 133 346 158 478 2 16 6 32 8 35 2 3 7 29 11 56 4 28 9 61
11 75 13 87 18 184 18 320 -1 131 -9 295 -15 295 -1 0 -3 11 -4 25 -1 14 -5
41 -9 60 -4 19 -8 46 -10 60 -2 14 -6 32 -8 40 -3 8 -11 40 -18 70 -23 109
-103 327 -166 457 -53 111 -155 285 -201 343 -237 305 -442 490 -723 651 -91
53 -134 74 -237 120 -27 12 -57 25 -68 31 -12 5 -27 10 -35 11 -8 2 -19 5 -25
9 -14 8 -175 59 -205 64 -14 3 -32 7 -40 11 -8 3 -22 7 -30 8 -8 1 -40 7 -70
13 -30 6 -73 13 -95 16 -22 3 -51 8 -65 11 -14 3 -77 8 -140 11 -63 3 -130 7
-148 8 -18 1 -33 2 -35 1z m173 -1250 c30 -3 64 -7 76 -9 53 -11 161 -40 188
-51 17 -7 34 -14 38 -14 13 -2 178 -90 188 -101 3 -3 23 -18 45 -34 75 -54
203 -192 260 -279 31 -49 58 -93 59 -100 1 -7 12 -32 24 -57 21 -46 57 -155
66 -200 3 -14 8 -36 11 -50 11 -42 13 -276 4 -327 -5 -27 -12 -61 -15 -78 -19
-111 -99 -296 -173 -400 -53 -74 -157 -181 -226 -231 -33 -24 -65 -48 -72 -54
-13 -11 -129 -70 -183 -93 -40 -18 -157 -52 -215 -63 -80 -15 -247 -19 -320
-8 -22 3 -49 7 -60 8 -45 7 -161 39 -170 47 -5 5 -15 9 -22 9 -25 0 -147 62
-220 112 -186 125 -330 307 -409 517 -26 68 -45 137 -49 181 -2 14 -6 41 -10
60 -10 46 -10 210 -1 280 13 102 68 287 90 302 6 4 8 8 4 8 -10 0 33 79 89
162 42 63 155 187 213 233 113 91 320 190 439 210 19 3 37 8 40 10 4 2 45 7
91 10 47 4 86 8 87 9 2 2 72 -3 133 -9z"/>
<path d="M7179 10346 c-2 -2 -56 -7 -119 -10 -63 -4 -126 -9 -140 -10 -34 -5
-90 -15 -120 -21 -74 -16 -86 -18 -102 -19 -10 0 -18 -3 -18 -6 0 -4 -6 -7
-12 -7 -22 0 -170 -49 -253 -84 -127 -52 -290 -143 -370 -206 -16 -13 -35 -27
-40 -31 -6 -4 -39 -31 -74 -61 -209 -179 -374 -414 -476 -681 -32 -81 -78
-241 -89 -305 -3 -16 -8 -41 -10 -55 -3 -14 -8 -43 -11 -65 -4 -22 -9 -53 -11
-70 -3 -16 -6 -666 -8 -1443 -3 -1290 -2 -1413 13 -1420 12 -6 1097 -8 1217
-3 l22 1 0 1323 c0 727 3 1340 6 1362 11 70 13 79 44 157 34 88 99 184 166
246 61 56 161 120 216 137 75 23 124 35 162 39 25 3 50 6 55 7 4 1 10 1 13 0
3 -1 32 -4 65 -5 55 -4 128 -18 165 -33 8 -4 17 -7 20 -7 3 -1 14 -7 25 -13
11 -6 23 -10 26 -10 14 4 129 -76 172 -120 79 -80 96 -105 137 -188 42 -88 62
-161 66 -245 2 -30 3 -55 4 -55 1 0 2 -17 3 -38 1 -20 0 -37 -3 -37 -7 0 -4
-110 3 -117 4 -3 2 -13 -3 -22 -5 -10 -5 -23 -1 -29 4 -7 5 -33 1 -58 -4 -24
-3 -47 2 -50 4 -3 4 -13 -2 -23 -5 -10 -7 -21 -3 -25 7 -7 10 -76 3 -76 -6 0
-3 -97 3 -115 3 -6 1 -18 -3 -25 -5 -8 -6 -18 -3 -24 7 -11 10 -76 3 -76 -7 0
-4 -110 3 -117 4 -3 2 -13 -3 -22 -5 -10 -5 -23 -1 -30 5 -7 5 -30 1 -51 -4
-21 -4 -44 1 -51 4 -7 4 -22 -1 -34 -5 -12 -4 -28 0 -35 5 -8 6 -18 3 -23 -8
-14 -9 -76 -1 -71 5 3 4 -6 -1 -19 -5 -13 -6 -29 -2 -36 4 -6 5 -32 1 -57 -4
-24 -3 -47 2 -50 4 -3 4 -13 -2 -23 -5 -10 -6 -21 -3 -25 6 -5 8 -64 3 -83 -5
-22 -4 -61 2 -80 4 -13 4 -23 0 -23 -4 0 -7 -12 -6 -27 1 -16 3 -28 4 -28 1 0
2 -17 3 -38 1 -20 0 -37 -3 -37 -7 0 -4 -110 3 -117 4 -3 2 -13 -3 -22 -5 -10
-5 -23 -1 -30 5 -7 5 -30 1 -51 -4 -21 -4 -44 1 -51 4 -7 4 -22 -1 -34 -5 -12
-4 -28 0 -35 5 -8 6 -18 3 -23 -8 -14 -9 -76 -1 -71 5 3 4 -6 -1 -19 -5 -13
-6 -29 -2 -36 4 -6 5 -32 1 -57 -4 -24 -3 -47 2 -50 4 -3 4 -13 -2 -23 -5 -10
-6 -21 -3 -25 6 -5 8 -64 3 -83 -5 -22 -4 -61 2 -80 4 -13 4 -23 0 -23 -6 0
-7 -60 -2 -67 2 -2 3 -8 4 -15 1 -9 152 -12 616 -12 338 -1 620 0 625 1 7 2
10 454 10 1336 -1 973 2 1347 11 1390 6 31 9 57 6 57 -3 0 -1 5 6 12 7 7 12
19 12 27 0 20 47 118 80 166 89 129 262 245 402 271 249 45 465 -23 640 -199
21 -21 38 -42 38 -46 0 -4 9 -16 19 -25 23 -21 79 -132 91 -181 1 -5 6 -20 11
-33 5 -13 12 -37 16 -55 3 -18 7 -635 7 -1372 1 -1040 4 -1341 13 -1345 10 -4
1168 -5 1233 -1 13 1 15 155 13 1333 -1 1192 -4 1446 -17 1554 -11 94 -21 161
-26 167 -1 1 -4 16 -6 32 -3 17 -12 55 -20 85 -9 30 -18 66 -21 79 -2 13 -8
31 -12 40 -5 9 -10 21 -11 26 -5 19 -12 40 -26 72 -8 17 -14 34 -14 37 0 7
-78 165 -110 224 -34 60 -158 224 -217 285 -41 43 -101 98 -186 172 -29 25
-167 116 -219 143 -104 57 -177 92 -199 96 -8 2 -27 9 -44 16 -30 12 -121 45
-140 50 -5 1 -14 4 -20 5 -5 2 -30 8 -55 13 -25 6 -58 14 -75 18 -45 11 -46
11 -95 17 -25 4 -56 9 -70 11 -102 20 -407 20 -510 1 -19 -4 -46 -9 -60 -11
-91 -12 -251 -65 -369 -121 -220 -105 -420 -266 -556 -448 -17 -22 -38 -49
-47 -59 -10 -11 -18 -26 -18 -33 0 -7 -3 -13 -8 -13 -7 0 -25 -29 -37 -62 -9
-21 -40 -29 -58 -14 -7 6 -26 31 -42 56 -17 25 -32 47 -35 50 -3 3 -13 16 -21
30 -30 46 -161 186 -240 256 -45 39 -178 134 -188 134 -6 0 -11 4 -11 9 0 5
-8 11 -17 14 -10 3 -45 21 -78 40 -33 18 -87 44 -120 57 -33 13 -65 27 -70 31
-6 5 -22 10 -37 13 -14 2 -35 9 -45 14 -10 6 -32 12 -50 15 -17 3 -36 8 -41
11 -5 3 -24 8 -43 11 -19 3 -47 8 -64 12 -41 9 -48 10 -145 18 -47 4 -88 9
-91 11 -3 2 -8 2 -10 0z"/>
</g>
</svg>
